<svg width="17" height="21" viewBox="0 0 17 21" fill="none" xmlns="http://www.w3.org/2000/svg">
<path d="M3.22778 7.8867C3.22778 7.8867 8.95184 7.22214 9.76951 6.95627C10.5872 6.69046 11.0607 6.20312 11.0607 6.20312C11.0607 6.20312 11.8784 8.86136 12.1366 9.92466C12.3518 10.988 12.567 12.6715 12.567 12.6715C13.0835 14.2222 13.2126 15.7728 13.2126 15.7728L12.2657 14.4437L8.52141 15.3298L5.93915 16.2159L5.76702 14.3994L4.90626 11.6525L4.00246 9.39304L3.22778 7.8867Z" fill="#0076FF"/>
<path d="M12.3948 6.64612C12.4379 6.69041 13.2556 7.57649 13.4278 7.8423C13.5999 8.06382 13.4278 8.63979 13.2126 9.17142L13.2556 9.21571L13.4708 9.34864L12.3518 10.9879L11.9645 9.12712C11.8784 9.12712 11.7493 9.08283 11.6632 8.99419C10.6733 8.24105 11.2759 7.13345 11.2759 7.13345C11.3189 7.00051 11.448 6.86764 11.5341 6.7347C11.7063 6.4246 12.0936 6.33595 12.3948 6.64612Z" fill="#18191B"/>
<path d="M2.79747 18.6525C2.84051 18.6525 2.92658 18.6969 2.92658 18.6969L3.01266 18.9627H3.0557C4.60506 19.2728 6.36963 19.1842 6.71392 18.9627C7.57465 18.3424 8.39238 16.7475 8.65063 15.95C8.65063 15.95 10.243 14.9754 11.4911 15.1525C12.3949 15.2412 12.7823 16.083 12.7823 17.3234C12.8253 17.3234 13.1696 17.3678 13.1696 17.3678C13.1696 17.3678 13.1265 17.5007 13.1265 17.545C13.1265 17.5893 12.9974 17.7665 12.9974 17.8108C13.0835 18.2982 13.2987 18.7855 13.7721 19.0513C15.4506 18.6525 17 17.0576 17 17.0576L16.3544 16.4816C15.881 16.8804 15.1063 17.2348 14.6329 17.2791C14.6329 17.2791 15.1493 13.469 14.5898 12.9816C13.9443 12.3614 12.7823 12.0513 12.2227 12.1399L12.8253 13.8677L5.89619 15.5956C5.89619 15.5956 5.50885 14.5323 5.37974 14.1779C5.37974 15.0639 4.82025 16.4374 4.56202 16.7032C4.00253 17.4121 2.96962 17.4121 2.28102 17.2348L1.67848 17.0576C1.67848 17.0576 1.16203 17.8108 0.946839 18.2539C0.0860848 20.2032 1.72152 20.9564 1.72152 20.9564H2.02279H2.75443L15.1493 21.0007C12.8683 19.7602 5.81012 19.7159 2.45316 20.5133C2.23798 19.7602 2.79747 18.6525 2.79747 18.6525Z" fill="#18191B"/>
<path d="M9.76961 6.91146C9.03797 6.2469 8.00506 5.71523 6.24046 5.89245L5.85315 5.58232C6.06835 5.44941 6.15443 5.44941 6.32655 5.27219C5.76707 4.07598 5.50884 2.83546 5.50884 2.1266C5.93925 1.99369 7.53162 1.86078 7.87591 0C7.87591 0 6.7139 0.797476 5.81011 0.354433C4.30378 -0.443041 3.22784 1.019 3.22784 1.019C3.22784 1.019 2.19493 1.0633 2.23797 1.68355C2.32404 3.58863 2.88353 4.96206 4.04556 6.60129C2.62531 7.22156 1.9367 7.84183 1.29113 8.86084C0.430378 10.1457 0 11.9178 0 11.9178C0 11.9178 1.20506 13.4242 4.04556 13.7786C4.08859 13.557 4.21771 13.4685 4.26075 13.3799C4.30378 13.3799 5.681 13.2912 6.06835 12.9811C6.06835 12.9811 6.67089 11.8735 6.11136 11.4305C5.93925 11.2976 5.681 11.3418 4.86327 11.3861C4.00252 11.4305 3.74429 11.2976 3.74429 11.2976L4.4329 10.7659L3.8734 8.4178L9.76961 6.91146Z" fill="#18191B"/>
</svg>
