<?xml version="1.0" standalone="no"?>
<!DOCTYPE svg PUBLIC "-//W3C//DTD SVG 20010904//EN"
 "http://www.w3.org/TR/2001/REC-SVG-20010904/DTD/svg10.dtd">
<svg version="1.0" xmlns="http://www.w3.org/2000/svg"
 width="199.000000pt" height="68.000000pt" viewBox="0 0 199.000000 68.000000"
 preserveAspectRatio="xMidYMid meet">

<g transform="translate(0.000000,68.000000) scale(0.100000,-0.100000)"
fill="#000000" stroke="none">
<path d="M150 388 c-63 -161 -122 -314 -132 -340 l-18 -48 64 0 c61 0 64 1 71
27 12 50 20 53 132 53 l104 0 17 -40 17 -40 62 0 c61 0 62 1 54 23 -127 327
-254 653 -255 655 -2 1 -54 -129 -116 -290z m155 -115 l33 -93 -74 0 -73 0 37
105 c20 58 39 100 41 93 2 -7 18 -55 36 -105z"/>
<path d="M1610 387 c-62 -160 -121 -313 -131 -340 l-19 -47 63 0 62 0 17 40
17 40 104 0 c112 0 120 -3 132 -53 7 -26 10 -27 71 -27 l64 0 -24 63 c-53 139
-238 612 -240 614 -1 2 -53 -129 -116 -290z m156 -114 l34 -93 -75 0 -74 0 37
105 c20 58 39 99 41 92 2 -6 19 -54 37 -104z"/>
<path d="M540 603 c1 -52 6 -66 50 -133 l49 -75 -49 -3 -50 -3 0 -195 0 -194
60 0 60 0 0 135 0 135 28 0 c26 0 37 -13 113 -135 l84 -135 62 0 c35 0 63 3
63 8 0 4 -38 68 -84 141 l-84 135 37 17 c80 36 122 141 92 232 -30 89 -121
127 -308 127 l-123 0 0 -57z m304 -83 c8 -8 18 -27 21 -42 6 -22 1 -33 -23
-58 -45 -45 -61 -39 -109 39 -24 38 -43 72 -43 76 0 14 139 0 154 -15z"/>
<path d="M1040 330 l0 -333 118 6 c184 8 283 57 339 167 26 50 28 64 28 165 0
105 -2 113 -31 165 -61 109 -146 148 -336 157 l-118 6 0 -333z m237 205 c35
-10 61 -27 83 -51 42 -48 52 -77 52 -155 0 -132 -64 -198 -206 -215 l-56 -7 0
215 c0 118 3 218 7 221 11 12 67 8 120 -8z"/>
</g>
</svg>
