<svg xmlns="http://www.w3.org/2000/svg" width="24" height="24" viewBox="0 0 24 24">
  <path fill="currentColor" d="M16.214 5.6H7.983A2.386 2.386 0 0 0 5.6 7.983v8.231a2.386 2.386 0 0 0 2.383 2.383h8.231a2.386 2.386 0 0 0 2.383-2.383V7.983A2.386 2.386 0 0 0 16.214 5.6zm-4.116 10.777a4.284 4.284 0 0 1-4.278-4.279c0-2.359 1.92-4.278 4.278-4.278 2.36 0 4.28 1.92 4.28 4.278 0 2.36-1.92 4.28-4.28 4.28zm4.417-7.672a1.014 1.014 0 0 1 0-2.025 1.014 1.014 0 0 1 0 2.025z"/>
  <path fill="currentColor" d="M12.07 9.6a2.474 2.474 0 0 0-2.47 2.47 2.474 2.474 0 0 0 2.47 2.471 2.474 2.474 0 0 0 2.471-2.47 2.473 2.473 0 0 0-2.47-2.471z"/>
  <path fill="currentColor" d="M0 0v24h24V0H0zm20.307 16.116c0 2.311-1.88 4.19-4.191 4.19H7.884c-2.31 0-4.19-1.879-4.19-4.19V7.884c0-2.31 1.88-4.19 4.19-4.19h8.232c2.311 0 4.19 1.88 4.19 4.19v8.232z"/>
</svg>
