<svg xmlns="http://www.w3.org/2000/svg" width="24" height="24" viewBox="0 0 24 24">
    <path fill="currentColor" fill-rule="nonzero" d="M0 0v24h24V0H0zm7.465 19.939h-3.56V9.226h3.56v10.713zM5.685 7.764H5.66c-1.194 0-1.969-.823-1.969-1.852 0-1.051.797-1.85 2.016-1.85 1.219 0 1.968.799 1.991 1.85 0 1.029-.772 1.852-2.014 1.852zm14.623 12.175h-3.562v-5.732c0-1.44-.515-2.422-1.804-2.422-.984 0-1.57.662-1.827 1.303-.094.228-.118.547-.118.868v5.983H9.435s.047-9.708 0-10.713h3.562v1.518c.473-.728 1.318-1.77 3.21-1.77 2.344 0 4.1 1.531 4.1 4.821v6.144z"/>
</svg>
