<svg width="40" height="49" viewBox="0 0 40 49" fill="none" xmlns="http://www.w3.org/2000/svg">
<path d="M38.9463 19.3252C38.9463 23.5842 37.5386 27.5146 35.163 30.6765C31.0734 36.12 24.7539 43.9198 20.0232 48.6495C15.2924 43.9198 8.97299 36.12 4.88333 30.6765C2.50777 27.5146 1.1001 23.5842 1.1001 19.3252C1.1001 8.87654 9.57225 0.40625 20.0232 0.40625C30.4741 0.40625 38.9463 8.87654 38.9463 19.3252Z" fill="#18191B"/>
<path fill-rule="evenodd" clip-rule="evenodd" d="M31.2334 21.6134C31.0429 21.4348 30.8785 21.2824 30.6219 21.0577L21.5054 13.1172C21.3931 13.0189 21.2848 12.9166 21.1906 12.8023C20.9981 12.5655 20.8437 12.3629 20.8437 12.0419C20.8437 11.733 21.0041 11.4842 21.1926 11.2696H31.3056L28.661 13.0209H31.3056V13.703C31.3056 13.7532 31.3036 13.8013 31.2995 13.8495C31.2554 14.3791 30.9407 14.8506 30.4976 15.1435L27.7829 16.8608H29.5532C30.658 16.8608 31.3076 17.6472 31.3076 18.6162V19.6654L32.711 21.0336V18.4376C32.711 17.248 32.4083 16.608 31.5963 16.1084C32.276 15.5287 32.711 14.666 32.711 13.703V9.86523H14.7387C9.70022 9.86523 5.6001 13.9679 5.6001 19.0094C5.6001 24.0509 9.70022 28.1535 14.7387 28.1535H32.4865C32.7992 27.0923 33.0539 25.9969 33.0378 25.0881C33.0138 23.8623 32.5266 22.8251 31.2334 21.6134ZM25.4392 12.3669H22.7585L24.3224 13.6749C24.9532 13.5516 25.416 13.0096 25.4392 12.3669ZM14.7397 26.7492H23.7319C23.9004 26.5185 24.0146 26.2477 24.0186 25.9869C24.0267 25.6298 23.9104 25.3429 23.5655 25.0199C23.5655 25.0199 16.2775 18.578 13.8495 16.4515C13.6808 16.3024 13.5398 16.1612 13.4094 16.0306L13.4094 16.0306C13.3415 15.9626 13.2765 15.8974 13.212 15.8356C12.1072 14.7864 11.8747 13.1574 12.3639 11.6467C9.2582 12.6518 7.00464 15.5728 7.00464 19.0114C7.00464 23.2785 10.4752 26.7492 14.7397 26.7492ZM27.6306 26.7477H25.3189C25.4432 26.4789 25.5194 26.198 25.5194 25.9191C25.5194 25.2812 25.331 24.8639 24.8077 24.2921C24.6613 24.1316 24.5089 23.9792 24.3465 23.8347L14.7809 15.3767C14.6358 15.2496 14.5282 15.1328 14.4325 15.0288L14.4325 15.0288C14.4013 14.9949 14.3714 14.9624 14.3418 14.9313C13.4155 13.9623 13.3153 12.5079 14.0311 11.3042C14.2636 11.2821 14.5002 11.2701 14.7388 11.2701H15.9278C15.4546 12.5179 15.6731 13.6855 16.7357 14.7468C16.7679 14.7789 16.7992 14.8107 16.83 14.8419L16.8301 14.8419C16.9204 14.9334 17.0059 15.0201 17.0926 15.0978L27.0372 23.9691C27.0833 24.011 27.1265 24.0546 27.1678 24.0962L27.1679 24.0962C27.2038 24.1324 27.2382 24.1671 27.2718 24.1978C28.0978 24.9622 28.184 25.6944 27.6306 26.7477ZM29.1744 26.7477H31.3278C31.4982 26.192 31.6205 25.6784 31.6225 25.1488C31.6225 24.0975 31.1192 23.4997 30.227 22.6511C30.1158 22.545 29.9625 22.411 29.796 22.2653C29.7735 22.2457 29.7507 22.2258 29.7278 22.2057L20.6113 14.1991C20.4812 14.0852 20.3642 13.9658 20.245 13.8442C20.2025 13.8009 20.1598 13.7573 20.1161 13.7136C19.667 13.2642 19.4023 12.8509 19.4023 12.1026C19.4023 11.8218 19.4685 11.5409 19.5788 11.2701H17.4315C16.9763 12.0926 17.0385 13.0696 17.7923 13.8219C17.8681 13.9006 17.9464 13.9769 18.0269 14.0506L27.9715 22.9219C28.0432 22.9862 28.1126 23.0513 28.1858 23.1199C28.2313 23.1627 28.2784 23.2068 28.3284 23.2529C29.5454 24.3864 29.7118 25.4296 29.1744 26.7477Z" fill="white"/>
</svg>
