<svg xmlns="http://www.w3.org/2000/svg" width="24" height="24" viewBox="0 0 24 24">
    <path fill="currentColor" fill-rule="nonzero" d="M0 0v24h24V0H0zm3.947 14.603c-.006.038-.033.065-.067.065s-.062-.027-.066-.065l-.122-.907.122-.923c.004-.038.032-.065.066-.065s.061.027.067.065l.144.923-.144.907zm.617.552c-.006.04-.034.067-.07.067-.035 0-.064-.028-.068-.067l-.164-1.46.164-1.491c.004-.04.033-.068.069-.068.035 0 .063.028.069.068l.186 1.492-.186 1.46zm.667.247c-.005.047-.04.081-.084.081-.043 0-.078-.034-.083-.081l-.155-1.706.155-1.77c.005-.048.04-.082.083-.082.044 0 .079.034.084.081l.176 1.77-.176 1.707zm.672.054c-.005.054-.047.096-.097.096a.1.1 0 0 1-.098-.096l-.147-1.76.147-1.819a.1.1 0 0 1 .098-.096c.05 0 .092.041.097.096l.166 1.82-.166 1.76zm.678.015a.114.114 0 0 1-.112.11.113.113 0 0 1-.112-.11l-.138-1.775.138-1.687a.113.113 0 0 1 .112-.11c.06 0 .107.047.112.11l.156 1.687-.156 1.775zm.683 0a.129.129 0 0 1-.126.124.128.128 0 0 1-.126-.124l-.13-1.774.13-2.745a.128.128 0 0 1 .126-.125c.066 0 .122.055.126.124l.147 2.746-.147 1.774zm.678-.002a.143.143 0 0 1-.14.139.142.142 0 0 1-.14-.138l-.122-1.763.121-3.374a.142.142 0 0 1 .14-.138c.075 0 .137.06.14.138l.138 3.374-.137 1.762zm.704-.027a.156.156 0 0 1-.155.153.156.156 0 0 1-.154-.152l-.113-1.745.113-3.655a.156.156 0 0 1 .154-.153c.083 0 .151.067.155.153l.127 3.655-.127 1.744zm.698-.01a.17.17 0 0 1-.168.166.17.17 0 0 1-.168-.166l-.105-1.734.105-3.778a.17.17 0 0 1 .168-.167.17.17 0 0 1 .168.167l.118 3.778-.118 1.733zm.705-.017a.184.184 0 0 1-.183.182c-.1 0-.18-.08-.182-.181l-.097-1.718.097-3.681a.183.183 0 0 1 .182-.182c.1 0 .18.08.183.182l.108 3.681-.108 1.717zm.71-.011a.197.197 0 0 1-.394.001l-.088-1.707.088-3.547a.197.197 0 0 1 .394 0l.098 3.548-.098 1.705zm.724-.178l-.01.167a.215.215 0 0 1-.21.21.212.212 0 0 1-.21-.202l-.001-.007-.08-1.696.08-4.18v-.04a.215.215 0 0 1 .21-.21.215.215 0 0 1 .21.21l.09 4.22-.08 1.528zm.703.142a.227.227 0 0 1-.225.225.227.227 0 0 1-.225-.223l-.046-.824-.047-.847.092-4.58v-.023a.228.228 0 0 1 .226-.225.228.228 0 0 1 .225.224l.1 4.604-.1 1.67zm6.078.23H12.6a.24.24 0 0 1-.22-.235V8.877c0-.12.042-.18.196-.24a3.606 3.606 0 0 1 4.899 3.042 2.044 2.044 0 0 1 2.834 1.885 2.035 2.035 0 0 1-2.044 2.034z"/>
</svg>
