<svg xmlns="http://www.w3.org/2000/svg" width="24" height="24" viewBox="0 0 24 24">
    <g fill="currentColor" fill-rule="nonzero">
        <path d="M0 0v24h24V0H0zm20.298 5.31l-2.82 13.564a.451.451 0 0 1-.707.273l-3.849-2.795a.636.636 0 0 0-.776.022l-2.134 1.74a.45.45 0 0 1-.716-.216l-1.482-4.766-3.828-1.429a.451.451 0 0 1-.005-.844l15.713-6.061a.451.451 0 0 1 .604.513z"/>
        <path d="M16.64 8.02l-7.482 4.61a.754.754 0 0 0-.33.847l.81 2.842c.057.202.35.181.378-.027l.21-1.559c.04-.293.18-.564.397-.766l6.175-5.74c.115-.107-.023-.289-.157-.206z"/>
    </g>
</svg>
