<svg xmlns="http://www.w3.org/2000/svg" width="24" height="24" viewBox="0 0 24 24">
    <path fill="currentColor" fill-rule="nonzero" d="M0 0v24h24V0H0zm18.607 8.611c.006.147.01.294.01.441 0 4.505-3.43 9.7-9.7 9.7a9.647 9.647 0 0 1-5.225-1.532 6.886 6.886 0 0 0 5.047-1.412 3.412 3.412 0 0 1-3.184-2.367 3.397 3.397 0 0 0 1.54-.058A3.411 3.411 0 0 1 4.36 10.04v-.043c.46.255.985.409 1.544.427a3.407 3.407 0 0 1-1.055-4.552 9.678 9.678 0 0 0 7.026 3.562 3.409 3.409 0 0 1 5.809-3.11 6.823 6.823 0 0 0 2.165-.826 3.419 3.419 0 0 1-1.5 1.886 6.816 6.816 0 0 0 1.959-.537 6.922 6.922 0 0 1-1.701 1.764z"/>
</svg>
