<svg xmlns="http://www.w3.org/2000/svg" width="24" height="24" viewBox="0 0 24 24">
    <path fill="currentColor" fill-rule="nonzero" d="M0 0v24h24V0H0zm17.992 13.278c.55.537 1.134 1.043 1.628 1.638.219.262.425.533.583.837.223.436.02.914-.369.94h-2.42c-.624.05-1.122-.201-1.542-.629-.333-.34-.645-.704-.968-1.056a2.28 2.28 0 0 0-.434-.388c-.33-.214-.618-.15-.806.195-.193.35-.238.74-.255 1.13-.027.57-.199.72-.771.747-1.224.057-2.385-.13-3.463-.745-.952-.544-1.69-1.313-2.33-2.182-1.251-1.694-2.209-3.555-3.068-5.468-.195-.432-.053-.663.422-.671.79-.016 1.58-.014 2.37-.001.321.005.534.189.657.492.428 1.05.95 2.05 1.606 2.977.176.246.354.492.607.666.28.193.495.13.627-.184.084-.2.12-.411.139-.624.062-.73.07-1.46-.038-2.188-.068-.455-.325-.749-.778-.835-.231-.044-.197-.129-.085-.261.195-.228.379-.37.743-.37h2.735c.431.084.528.279.587.712l.002 3.04c-.005.167.084.665.385.775.241.08.402-.114.547-.268.655-.695 1.122-1.516 1.54-2.367.185-.374.344-.762.5-1.15.114-.288.293-.43.617-.425l2.633.004c.078 0 .157 0 .234.012.443.077.565.268.427.701-.215.68-.636 1.247-1.046 1.814-.44.608-.909 1.195-1.345 1.806-.4.56-.368.841.129 1.326z"/>
</svg>
