<svg xmlns="http://www.w3.org/2000/svg" width="24" height="24" viewBox="0 0 24 24">
    <g fill="currentColor" fill-rule="nonzero">
        <path d="M0 0v24h24V0H0zm20.017 15.928c-.203.883-.926 1.536-1.796 1.633-2.06.23-4.145.23-6.222.23-2.076 0-4.161 0-6.221-.23-.87-.097-1.593-.75-1.796-1.633-.29-1.258-.29-2.632-.29-3.928 0-1.296.004-2.67.293-3.927.203-.884.926-1.536 1.795-1.633 2.06-.23 4.146-.231 6.223-.23 2.076-.001 4.16 0 6.221.23.87.097 1.593.749 1.796 1.633.29 1.258.288 2.631.288 3.927 0 1.296-.001 2.67-.29 3.928z"/>
        <path d="M10 15l4.8-2.991L10 9v6z"/>
    </g>
</svg>
