<svg width="24" height="24" viewBox="0 0 24 24" fill="none" xmlns="http://www.w3.org/2000/svg">
<path d="M13.9894 1.6502C14.5693 2.65462 14.2252 3.93896 13.2208 4.51886C12.2164 5.09876 10.932 4.75462 10.3521 3.7502C9.77222 2.74579 10.1164 1.46145 11.1208 0.881551C12.1252 0.301652 13.4095 0.64579 13.9894 1.6502Z" fill="white"/>
<path d="M5.55867 16.4481C6.13857 17.4525 5.79443 18.7369 4.79002 19.3168C3.7856 19.8967 2.50126 19.5525 1.92136 18.5481C1.34147 17.5437 1.6856 16.2593 2.69002 15.6794C3.69443 15.0995 4.97877 15.4437 5.55867 16.4481Z" fill="white"/>
<path d="M22.4894 16.3726C23.0693 17.377 22.7252 18.6613 21.7207 19.2412C20.7163 19.8211 19.432 19.477 18.8521 18.4726C18.2722 17.4682 18.6163 16.1838 19.6207 15.6039C20.6252 15.024 21.9095 15.3682 22.4894 16.3726Z" fill="white"/>
<path fill-rule="evenodd" clip-rule="evenodd" d="M12.2626 1.45831L21.7922 17.9641L2.46344 18.1197L12.2626 1.45831ZM4.57136 16.9027L19.7234 16.7807L12.253 3.8417L4.57136 16.9027Z" fill="white"/>
<path fill-rule="evenodd" clip-rule="evenodd" d="M7.47801 4.37029C4.30047 6.20484 2.59822 9.61489 2.79111 13.0465L1.593 13.1138C1.37568 9.24767 3.29322 5.40073 6.87801 3.33105L7.47801 4.37029Z" fill="white"/>
<path fill-rule="evenodd" clip-rule="evenodd" d="M2.18831 12.2671L0.90138 10.8027L0 11.5949L2.07909 13.9606L4.44484 11.8815L3.65269 10.9802L2.18831 12.2671Z" fill="white"/>
<path fill-rule="evenodd" clip-rule="evenodd" d="M6.98146 20.3517C10.0682 22.3353 13.8791 22.2857 16.8408 20.5418L17.4497 21.5758C14.113 23.5406 9.815 23.5991 6.33271 21.3612L6.98146 20.3517Z" fill="white"/>
<path fill-rule="evenodd" clip-rule="evenodd" d="M16.4243 21.4347L15.7125 23.2496L16.8296 23.6878L17.9796 20.7557L15.0476 19.6057L14.6094 20.7229L16.4243 21.4347Z" fill="white"/>
<path fill-rule="evenodd" clip-rule="evenodd" d="M21.5788 12.9295C21.6235 9.26069 19.5604 6.05608 16.5112 4.47002L17.0649 3.40543C20.5003 5.19234 22.8292 8.80511 22.7787 12.9442L21.5788 12.9295Z" fill="white"/>
<path fill-rule="evenodd" clip-rule="evenodd" d="M17.4891 4.3496L19.4053 3.99061L19.1843 2.81113L16.0887 3.39109L16.6686 6.48674L17.8481 6.26577L17.4891 4.3496Z" fill="white"/>
</svg>
