<svg width="24" height="24" viewBox="0 0 24 24" fill="none" xmlns="http://www.w3.org/2000/svg">
<path d="M19.733 8.22095C19.4774 8.13284 19.2196 8.05236 18.9607 7.9773C19.0042 7.80219 19.0434 7.62707 19.0804 7.45086C19.6655 4.61197 19.2827 2.32455 17.9774 1.57187C16.7255 0.849635 14.6774 1.60232 12.6097 3.40246C12.4063 3.57975 12.2061 3.76357 12.0125 3.95066C11.882 3.82557 11.7493 3.70375 11.6144 3.58301C9.44664 1.65888 7.27342 0.84746 5.96927 1.60341C4.71842 2.32781 4.34752 4.4771 4.87396 7.16806C4.92617 7.43454 4.986 7.69994 5.05126 7.96316C4.74344 8.05018 4.4465 8.14372 4.16261 8.2427C1.62284 9.12809 0 10.516 0 11.9561C0 13.4441 1.7414 14.9353 4.38885 15.8403C4.60313 15.9131 4.81958 15.9806 5.03821 16.0437C4.96751 16.3275 4.90442 16.6136 4.85003 16.9008C4.34752 19.5449 4.74018 21.6431 5.98776 22.3632C7.27668 23.1061 9.43902 22.3425 11.5448 20.5021C11.7112 20.3564 11.8787 20.2019 12.0451 20.0409C12.2562 20.2443 12.4726 20.4412 12.6934 20.6326C14.7328 22.3882 16.7472 23.0963 17.9937 22.3751C19.2816 21.6301 19.6993 19.3753 19.1565 16.631C19.1152 16.4211 19.0662 16.2079 19.0129 15.9893C19.1652 15.9447 19.3142 15.8979 19.4589 15.85C22.2107 14.9386 24 13.4647 24 11.9572C24 10.5105 22.3249 9.11286 19.733 8.22095ZM13.2818 4.17581C15.0537 2.63346 16.7103 2.02543 17.464 2.46051C18.2678 2.92387 18.58 4.79362 18.0753 7.2442C18.0427 7.40409 18.0057 7.56289 17.9676 7.7217C16.9724 7.49219 15.8912 7.32142 14.7589 7.21483C14.0998 6.27615 13.4156 5.42231 12.7304 4.68267C12.9099 4.50864 13.0937 4.34005 13.2818 4.17581ZM7.08634 13.1863C7.30387 13.605 7.53012 14.0195 7.76723 14.4284C8.0087 14.845 8.25996 15.2562 8.52101 15.6608C7.7346 15.5727 6.99388 15.4541 6.30863 15.3051C6.52073 14.6209 6.78178 13.9096 7.08634 13.1863ZM7.08525 10.7749C6.78613 10.0668 6.53161 9.37064 6.32277 8.69845C7.00802 8.54508 7.73787 8.42 8.49816 8.32537C8.24364 8.72238 7.99782 9.12591 7.76288 9.53488C7.52685 9.94277 7.3017 10.3561 7.08525 10.7749ZM7.63018 11.9811C7.94562 11.3231 8.28606 10.6781 8.65153 10.0461C9.01591 9.41415 9.40421 8.79634 9.81536 8.19376C10.5289 8.13937 11.2609 8.11109 12.0005 8.11109C12.7434 8.11109 13.4765 8.13937 14.1901 8.19376C14.5969 8.79525 14.983 9.41089 15.3463 10.0396C15.7118 10.6704 16.0566 11.3122 16.3807 11.9648C16.0598 12.6239 15.7161 13.2722 15.3496 13.9074C14.9863 14.5394 14.6023 15.1583 14.1977 15.7652C13.4852 15.8163 12.75 15.8424 11.9995 15.8424C11.2522 15.8424 10.5256 15.8196 9.82624 15.7739C9.41183 15.1691 9.02026 14.5481 8.6537 13.9129C8.28824 13.2831 7.9467 12.6381 7.63018 11.9811ZM16.2371 14.4208C16.4786 14.0021 16.7103 13.5778 16.9332 13.1493C17.2541 13.8802 17.525 14.5883 17.7392 15.2605C17.0431 15.4193 16.2915 15.5477 15.5007 15.6423C15.7542 15.2398 16 14.833 16.2371 14.4208ZM16.9235 10.7759C16.7016 10.355 16.471 9.93842 16.2328 9.52727C15.9978 9.12156 15.7553 8.72129 15.5029 8.32754C16.2687 8.42435 17.0029 8.5527 17.6914 8.71041C17.4847 9.37173 17.2269 10.0657 16.9235 10.7759ZM12.0114 5.41469C12.4846 5.927 12.9577 6.49913 13.4232 7.1202C12.478 7.0756 11.5317 7.0756 10.5865 7.11911C11.0532 6.50456 11.5317 5.93352 12.0114 5.41469ZM6.48267 2.48988C7.28538 2.02543 9.06159 2.68784 10.9324 4.34984C11.0521 4.45643 11.1717 4.56738 11.2925 4.68267C10.5952 5.43101 9.90673 6.28376 9.24759 7.21265C8.11856 7.31707 7.03848 7.48567 6.04541 7.71082C5.9845 7.46609 5.92903 7.21918 5.88008 6.97119C5.42978 4.66527 5.72889 2.92713 6.48267 2.48988ZM5.3123 15.0549C5.11326 14.9984 4.9153 14.9364 4.71951 14.8689C3.54915 14.4687 2.58328 13.9488 1.91978 13.3821C1.32481 12.8719 1.02352 12.3662 1.02352 11.955C1.02352 11.0816 2.32658 9.9667 4.4998 9.20858C4.77281 9.11395 5.04799 9.02693 5.32536 8.94862C5.62556 9.92537 6.01931 10.9467 6.49463 11.98C6.01496 13.0297 5.61577 14.0673 5.3123 15.0549ZM10.8693 19.7288C9.93827 20.5424 9.00503 21.1199 8.18273 21.4103C7.44419 21.6714 6.85574 21.679 6.50007 21.4734C5.74303 21.0373 5.42869 19.3513 5.85724 17.09C5.90836 16.8224 5.9671 16.557 6.03236 16.2927C7.01564 16.5103 8.10333 16.6669 9.26717 16.7604C9.93066 17.6948 10.6268 18.5541 11.3273 19.3057C11.1772 19.4514 11.0249 19.5928 10.8693 19.7288ZM12.0397 18.5704C11.5535 18.0461 11.0695 17.4664 10.5952 16.842C11.0542 16.8605 11.523 16.8692 11.9995 16.8692C12.4889 16.8692 12.9719 16.8583 13.4483 16.8366C12.9816 17.4718 12.5096 18.0526 12.0397 18.5704ZM18.2657 19.9963C18.1232 20.7664 17.8349 21.2809 17.4804 21.4865C16.7244 21.9248 15.1059 21.3549 13.3623 19.8539C13.1622 19.682 12.961 19.4982 12.7587 19.3035C13.4352 18.5638 14.1107 17.7035 14.7709 16.7485C15.9315 16.6452 17.0279 16.4776 18.0209 16.2471C18.0699 16.445 18.1134 16.6386 18.1504 16.8279C18.3908 18.0417 18.4245 19.1392 18.2657 19.9963ZM19.1358 14.8755C19.0042 14.919 18.8693 14.9614 18.7323 15.0016C18.4288 14.0401 18.0188 13.0177 17.5173 11.9615C17.9959 10.9304 18.3897 9.92102 18.6855 8.96493C18.9313 9.03563 19.1695 9.11068 19.399 9.19008C21.6201 9.95473 22.9743 11.0849 22.9743 11.9561C22.9754 12.8839 21.5114 14.0891 19.1358 14.8755Z" fill="white"/>
<path d="M11.9992 14.0999C13.1826 14.0999 14.142 13.1406 14.142 11.9572C14.142 10.7737 13.1826 9.81439 11.9992 9.81439C10.8158 9.81439 9.85645 10.7737 9.85645 11.9572C9.85536 13.1395 10.8147 14.0999 11.9992 14.0999Z" fill="white"/>
</svg>
