<svg width="158" height="28" viewBox="0 0 158 28" fill="none" xmlns="http://www.w3.org/2000/svg">
<path fill-rule="evenodd" clip-rule="evenodd" d="M34.1834 10.4755C34.1834 10.4755 32.2922 8.98137 29.9854 8.98137C28.4632 8.98137 27.6791 9.84128 27.6791 10.7927C27.6791 13.917 37.5974 12.9211 37.5974 20.5285C37.5974 24.6043 34.1374 28 28.6017 28C23.0654 28 20.2976 25.2831 20.2976 25.2831L23.0654 20.7999C23.0654 20.7999 25.6028 23.0186 28.6017 23.0186C30.355 23.0186 31.3696 22.1136 31.3696 20.9811C31.3696 17.5847 21.4513 18.491 21.4513 11.2452C21.4513 7.17008 24.6808 4 29.7549 4C34.2294 4 36.8593 6.26443 36.8593 6.26443L34.1834 10.4755ZM52.8669 10.4755C52.8669 10.4755 50.9751 8.98137 48.6688 8.98137C47.1467 8.98137 46.3626 9.84128 46.3626 10.7927C46.3626 13.917 56.2803 12.9211 56.2803 20.5285C56.2803 24.6043 52.8209 28 47.2852 28C41.7495 28 38.9817 25.2831 38.9817 25.2831L41.7495 20.7999C41.7495 20.7999 44.2869 23.0186 47.2852 23.0186C49.0379 23.0186 50.0531 22.1136 50.0531 20.9811C50.0531 17.5847 40.1348 18.491 40.1348 11.2452C40.1348 7.17008 43.3636 4 48.4383 4C52.9129 4 55.5428 6.26443 55.5428 6.26443L52.8669 10.4755ZM71.5503 10.4755C71.5503 10.4755 69.6591 8.98137 67.3523 8.98137C65.8301 8.98137 65.0454 9.84128 65.0454 10.7927C65.0454 13.917 74.9643 12.9211 74.9643 20.5285C74.9643 24.6043 71.5037 28 65.968 28C60.4323 28 57.6645 25.2831 57.6645 25.2831L60.4323 20.7999C60.4323 20.7999 62.9697 23.0186 65.968 23.0186C67.7207 23.0186 68.7359 22.1136 68.7359 20.9811C68.7359 17.5847 58.8176 18.491 58.8176 11.2452C58.8176 7.17008 62.0471 4 67.1218 4C71.5963 4 74.2256 6.26443 74.2256 6.26443L71.5503 10.4755ZM11.7635 28C16.1461 28 17.9913 26.415 17.9913 26.415V20.5285C17.9913 20.5285 16.3772 22.3398 12.6861 22.3398C8.99567 22.3398 6.22782 19.6229 6.22782 16.0003C6.22782 12.3777 8.99567 9.66076 12.6861 9.66076C16.3772 9.66076 17.9913 11.4715 17.9913 11.4715V5.58504C17.9913 5.58504 16.1461 4 11.7635 4C5.30582 4 0 9.20763 0 16.0003C0 22.7924 5.30582 28 11.7635 28ZM84.0979 14.8227H86.4048C88.4805 14.8227 89.6336 13.6907 89.6336 12.0148C89.6336 10.3395 88.4805 9.20763 86.4048 9.20763H84.0979V14.8227ZM96 27.3212H89.2646L85.0665 18.9435H84.0979V27.3212H78.1012V4.67939H87.466C92.4015 4.67939 95.6303 7.84886 95.6303 11.6983C95.6303 17.0871 90.8793 18.2641 90.8793 18.2641L96 27.3212Z" fill="white"/>
<path d="M103.133 14V12.7266H104.203V14H103.133ZM110.035 14.1641C109.441 14.1641 108.889 14.0859 108.378 13.9297C107.873 13.7682 107.397 13.5365 106.949 13.2344L106.941 11.5H107.707L107.839 12.7422C108.141 12.9766 108.477 13.1458 108.847 13.25C109.217 13.3542 109.613 13.4062 110.035 13.4062C110.743 13.4062 111.282 13.2526 111.652 12.9453C112.022 12.638 112.207 12.2734 112.207 11.8516C112.207 11.4557 112.04 11.1068 111.707 10.8047C111.378 10.4974 110.793 10.25 109.949 10.0625C108.938 9.84375 108.207 9.55208 107.753 9.1875C107.306 8.82292 107.082 8.3151 107.082 7.66406C107.082 7.23698 107.201 6.85156 107.441 6.50781C107.681 6.16406 108.019 5.89323 108.457 5.69531C108.899 5.49219 109.418 5.39062 110.011 5.39062C110.631 5.39062 111.17 5.48177 111.628 5.66406C112.087 5.84115 112.48 6.08073 112.808 6.38281L112.847 8.11719H112.082L111.972 6.86719C111.738 6.64323 111.464 6.47135 111.152 6.35156C110.839 6.22656 110.459 6.16406 110.011 6.16406C109.376 6.16406 108.886 6.3125 108.543 6.60938C108.199 6.90104 108.027 7.24219 108.027 7.63281C108.027 7.88802 108.079 8.11198 108.183 8.30469C108.293 8.49219 108.498 8.66146 108.8 8.8125C109.108 8.96354 109.553 9.10677 110.136 9.24219C111.194 9.48177 111.959 9.80729 112.433 10.2188C112.907 10.625 113.144 11.1536 113.144 11.8047C113.144 12.4922 112.876 13.0573 112.339 13.5C111.808 13.9427 111.04 14.1641 110.035 14.1641ZM118.858 14.1641C118.155 14.1641 117.533 13.987 116.991 13.6328C116.455 13.2786 116.033 12.7839 115.726 12.1484C115.424 11.513 115.273 10.776 115.273 9.9375V9.60938C115.273 8.78646 115.418 8.05729 115.71 7.42188C116.007 6.78646 116.424 6.28906 116.96 5.92969C117.496 5.57031 118.127 5.39062 118.851 5.39062C119.507 5.39062 120.09 5.51562 120.601 5.76562C121.111 6.01042 121.538 6.32812 121.882 6.71875L121.898 8.63281H121.116L120.991 7.05469C120.731 6.77865 120.426 6.5651 120.077 6.41406C119.728 6.25781 119.327 6.17969 118.874 6.17969C118.343 6.17969 117.877 6.32812 117.476 6.625C117.075 6.92188 116.762 7.33073 116.538 7.85156C116.319 8.36719 116.21 8.95312 116.21 9.60938V9.9375C116.21 10.625 116.319 11.2292 116.538 11.75C116.757 12.2656 117.064 12.6667 117.46 12.9531C117.856 13.2396 118.325 13.3828 118.866 13.3828C119.496 13.3828 120.023 13.2188 120.444 12.8906C120.866 12.5573 121.121 12.0677 121.21 11.4219H122.046L122.062 11.4688C122.015 12 121.856 12.4688 121.585 12.875C121.319 13.2812 120.955 13.599 120.491 13.8281C120.033 14.0521 119.489 14.1641 118.858 14.1641ZM123.878 14V13.3203L125.151 13.2188V2.60156L123.878 2.5V1.8125H126.088V7.02344C126.364 6.50781 126.734 6.10677 127.198 5.82031C127.667 5.53385 128.216 5.39062 128.846 5.39062C129.737 5.39062 130.419 5.66667 130.893 6.21875C131.372 6.76562 131.612 7.6224 131.612 8.78906V13.2188L132.885 13.3203V14H129.401V13.3203L130.674 13.2188V8.77344C130.674 7.85156 130.495 7.19271 130.135 6.79688C129.776 6.39583 129.276 6.19531 128.635 6.19531C127.948 6.19531 127.393 6.38802 126.971 6.77344C126.555 7.15885 126.26 7.65885 126.088 8.27344V13.2188L127.362 13.3203V14H123.878ZM138.42 14.1641C137.66 14.1641 136.998 13.9844 136.436 13.625C135.878 13.2604 135.443 12.7578 135.131 12.1172C134.824 11.4714 134.67 10.7344 134.67 9.90625V9.64844C134.67 8.82031 134.824 8.08594 135.131 7.44531C135.443 6.80469 135.878 6.30208 136.436 5.9375C136.998 5.57292 137.654 5.39062 138.404 5.39062C139.16 5.39062 139.816 5.57292 140.373 5.9375C140.936 6.30208 141.371 6.80469 141.678 7.44531C141.99 8.08073 142.147 8.8151 142.147 9.64844V9.90625C142.147 10.7396 141.99 11.4766 141.678 12.1172C141.371 12.7578 140.936 13.2604 140.373 13.625C139.816 13.9844 139.165 14.1641 138.42 14.1641ZM138.42 13.3828C138.998 13.3828 139.496 13.2292 139.912 12.9219C140.329 12.6146 140.649 12.1979 140.873 11.6719C141.097 11.1458 141.209 10.5573 141.209 9.90625V9.64844C141.209 9.0026 141.097 8.41667 140.873 7.89062C140.649 7.36458 140.326 6.94792 139.904 6.64062C139.488 6.33333 138.988 6.17969 138.404 6.17969C137.821 6.17969 137.318 6.33333 136.897 6.64062C136.48 6.94792 136.16 7.36458 135.936 7.89062C135.717 8.41667 135.608 9.0026 135.608 9.64844V9.90625C135.608 10.5625 135.717 11.1536 135.936 11.6797C136.16 12.2005 136.48 12.6146 136.897 12.9219C137.318 13.2292 137.826 13.3828 138.42 13.3828ZM147.947 14.1641C147.186 14.1641 146.525 13.9844 145.963 13.625C145.405 13.2604 144.97 12.7578 144.658 12.1172C144.351 11.4714 144.197 10.7344 144.197 9.90625V9.64844C144.197 8.82031 144.351 8.08594 144.658 7.44531C144.97 6.80469 145.405 6.30208 145.963 5.9375C146.525 5.57292 147.181 5.39062 147.931 5.39062C148.686 5.39062 149.343 5.57292 149.9 5.9375C150.463 6.30208 150.897 6.80469 151.205 7.44531C151.517 8.08073 151.673 8.8151 151.673 9.64844V9.90625C151.673 10.7396 151.517 11.4766 151.205 12.1172C150.897 12.7578 150.463 13.2604 149.9 13.625C149.343 13.9844 148.692 14.1641 147.947 14.1641ZM147.947 13.3828C148.525 13.3828 149.022 13.2292 149.439 12.9219C149.856 12.6146 150.176 12.1979 150.4 11.6719C150.624 11.1458 150.736 10.5573 150.736 9.90625V9.64844C150.736 9.0026 150.624 8.41667 150.4 7.89062C150.176 7.36458 149.853 6.94792 149.431 6.64062C149.015 6.33333 148.515 6.17969 147.931 6.17969C147.348 6.17969 146.845 6.33333 146.423 6.64062C146.007 6.94792 145.686 7.36458 145.463 7.89062C145.244 8.41667 145.134 9.0026 145.134 9.64844V9.90625C145.134 10.5625 145.244 11.1536 145.463 11.6797C145.686 12.2005 146.007 12.6146 146.423 12.9219C146.845 13.2292 147.353 13.3828 147.947 13.3828ZM153.302 14V13.3203L154.575 13.2188V2.60156L153.302 2.5V1.8125H155.513V13.2188L156.786 13.3203V14H153.302Z" fill="white"/>
</svg>
